{"glyphs":{"0":{"ha":746,"x_min":68,"x_max":678,"o":"m 254 0 q 122 55 177 0 q 68 186 68 109 l 68 729 q 122 861 68 806 q 254 916 177 916 l 492 916 q 624 861 569 916 q 678 729 678 806 l 678 186 q 624 55 678 109 q 492 0 569 0 l 254 0 m 305 271 q 325 223 305 243 q 373 203 345 203 q 421 223 401 203 q 441 271 441 243 l 441 644 q 421 692 441 672 q 373 712 401 712 q 325 692 345 712 q 305 644 305 672 l 305 271 z "},"1":{"ha":475,"x_min":68,"x_max":407,"o":"m 407 0 l 170 0 l 170 712 l 68 712 l 68 916 l 407 916 l 407 0 z "},"2":{"ha":746,"x_min":68,"x_max":678,"o":"m 373 373 q 325 353 345 373 q 305 305 305 333 l 305 203 l 678 203 l 678 0 l 68 0 l 68 305 q 147 497 68 418 q 339 576 227 576 l 373 576 q 421 596 401 576 q 441 644 441 616 q 421 692 441 672 q 373 712 401 712 l 203 712 l 203 916 l 407 916 q 599 836 519 916 q 678 644 678 757 q 599 452 678 532 q 407 373 519 373 l 373 373 z "},"3":{"ha":746,"x_min":68,"x_max":678,"o":"m 373 373 l 203 373 l 203 576 l 373 576 q 421 596 401 576 q 441 644 441 616 q 421 692 441 672 q 373 712 401 712 l 68 712 l 68 916 l 492 916 q 624 861 569 916 q 678 729 678 806 l 678 576 q 610 475 678 513 q 678 373 678 437 l 678 186 q 624 55 678 109 q 492 0 569 0 l 68 0 l 68 203 l 373 203 q 421 223 401 203 q 441 271 441 243 l 441 305 q 421 353 441 333 q 373 373 401 373 z "},"4":{"ha":746,"x_min":68,"x_max":678,"o":"m 305 814 q 511 916 373 916 l 678 916 l 678 712 l 508 712 l 305 373 l 441 373 l 441 509 l 678 509 l 678 0 l 441 0 l 441 203 l 68 203 l 68 407 l 305 814 z "},"5":{"ha":746,"x_min":68,"x_max":678,"o":"m 373 373 l 68 373 l 68 916 l 543 916 l 543 712 l 305 712 l 305 576 l 407 576 q 599 497 519 576 q 678 305 678 418 l 678 271 q 599 79 678 159 q 407 0 519 0 l 68 0 l 68 203 l 373 203 q 421 223 401 203 q 441 271 441 243 l 441 305 q 421 353 441 333 q 373 373 401 373 z "},"6":{"ha":746,"x_min":68,"x_max":678,"o":"m 305 373 l 305 271 q 325 223 305 243 q 373 203 345 203 q 421 223 401 203 q 441 271 441 243 l 441 305 q 421 353 441 333 q 373 373 401 373 l 305 373 m 254 0 q 122 55 177 0 q 68 186 68 109 l 68 729 q 122 861 68 806 q 254 916 177 916 l 543 916 l 543 712 l 373 712 q 325 692 345 712 q 305 644 305 672 l 305 576 l 492 576 q 624 522 569 576 q 678 390 678 467 l 678 186 q 624 55 678 109 q 492 0 569 0 l 254 0 z "},"7":{"ha":678,"x_min":68,"x_max":610,"o":"m 373 712 l 68 712 l 68 916 l 610 916 l 610 712 l 373 0 l 136 0 l 373 712 z "},"8":{"ha":746,"x_min":68,"x_max":678,"o":"m 373 203 q 421 223 401 203 q 441 271 441 243 l 441 305 q 421 353 441 333 q 373 373 401 373 q 325 353 345 373 q 305 305 305 333 l 305 271 q 325 223 305 243 q 373 203 345 203 m 373 576 q 421 596 401 576 q 441 644 441 616 q 421 692 441 672 q 373 712 401 712 q 325 692 345 712 q 305 644 305 672 q 325 596 305 616 q 373 576 345 576 m 492 916 q 624 861 569 916 q 678 729 678 806 l 678 576 q 610 475 678 513 q 678 373 678 437 l 678 186 q 624 55 678 109 q 492 0 569 0 l 254 0 q 122 55 177 0 q 68 186 68 109 l 68 373 q 136 475 68 437 q 68 576 68 513 l 68 729 q 122 861 68 806 q 254 916 177 916 l 492 916 z "},"9":{"ha":746,"x_min":68,"x_max":678,"o":"m 441 543 l 441 644 q 421 692 441 672 q 373 712 401 712 q 325 692 345 712 q 305 644 305 672 l 305 610 q 325 563 305 583 q 373 543 345 543 l 441 543 m 492 916 q 624 861 569 916 q 678 729 678 806 l 678 186 q 624 55 678 109 q 492 0 569 0 l 203 0 l 203 203 l 373 203 q 421 223 401 203 q 441 271 441 243 l 441 339 l 254 339 q 122 394 177 339 q 68 526 68 448 l 68 729 q 122 861 68 806 q 254 916 177 916 l 492 916 z "},"\u0000":{"ha":102,"x_min":0,"x_max":0,"o":""}," ":{"ha":678,"x_min":0,"x_max":0,"o":""},"!":{"ha":373,"x_min":68,"x_max":305,"o":"m 68 203 l 305 203 l 305 0 l 68 0 l 68 203 m 68 271 l 68 916 l 305 916 l 305 271 l 68 271 z "},"\"":{"ha":678,"x_min":68,"x_max":610,"o":"m 68 916 l 305 916 l 305 780 q 271 644 305 712 l 237 576 l 136 576 l 102 644 q 68 780 68 712 l 68 916 m 373 916 l 610 916 l 610 780 q 576 644 610 712 l 543 576 l 441 576 l 407 644 q 373 780 373 712 l 373 916 z "},"#":{"ha":916,"x_min":68,"x_max":848,"o":"m 407 509 l 407 407 l 509 407 l 509 509 l 407 509 m 407 203 l 407 102 l 170 102 l 170 203 l 68 203 l 68 407 l 170 407 l 170 509 l 68 509 l 68 712 l 170 712 l 170 814 l 407 814 l 407 712 l 509 712 l 509 814 l 746 814 l 746 712 l 848 712 l 848 509 l 746 509 l 746 407 l 848 407 l 848 203 l 746 203 l 746 102 l 509 102 l 509 203 l 407 203 z "},"$":{"ha":746,"x_min":68,"x_max":678,"o":"m 424 284 q 426 286 425 286 q 441 322 441 301 q 426 358 441 343 q 424 360 425 359 q 390 373 410 373 l 305 373 q 137 443 207 373 q 68 610 68 512 q 138 779 68 709 q 238 839 182 823 l 237 848 l 237 916 l 475 916 l 475 848 l 610 848 l 610 644 l 339 644 q 315 634 325 644 q 305 610 305 625 q 315 586 305 596 q 339 576 325 576 l 424 576 q 604 502 529 576 q 678 322 678 427 q 604 142 678 217 q 475 73 548 87 l 475 0 l 237 0 l 237 68 l 68 68 l 68 271 l 390 271 q 424 284 410 271 z "},"%":{"ha":1085,"x_min":68,"x_max":1017,"o":"m 305 576 q 325 529 305 549 q 373 509 345 509 q 421 529 401 509 q 441 576 441 549 l 441 644 q 421 692 441 672 q 373 712 401 712 q 325 692 345 712 q 305 644 305 672 l 305 576 m 644 271 q 664 223 644 243 q 712 203 684 203 q 760 223 740 203 q 780 271 780 243 l 780 339 q 760 387 780 367 q 712 407 740 407 q 664 387 684 407 q 644 339 644 367 l 644 271 m 305 305 l 254 305 q 122 360 177 305 q 68 492 68 414 l 68 729 q 122 861 68 806 q 254 916 177 916 l 492 916 q 624 861 569 916 q 652 825 640 844 l 712 916 l 983 916 l 780 610 l 831 610 q 963 556 908 610 q 1017 424 1017 501 l 1017 186 q 963 55 1017 109 q 831 0 908 0 l 593 0 q 462 55 516 0 q 433 90 445 71 l 373 0 l 102 0 l 305 305 z "},"&":{"ha":746,"x_min":68,"x_max":678,"o":"m 354 370 q 326 353 338 366 q 305 305 305 333 l 305 271 q 325 223 305 243 q 373 203 345 203 l 393 203 l 354 370 m 254 0 q 122 55 177 0 q 68 186 68 109 l 68 373 q 136 475 68 437 q 68 576 68 513 l 68 729 q 122 861 68 806 q 254 916 177 916 l 543 916 l 543 712 l 373 712 q 325 692 345 712 q 305 644 305 672 q 325 596 305 616 q 373 576 345 576 l 678 576 l 678 373 l 591 373 l 678 0 l 254 0 z "},"'":{"ha":373,"x_min":68,"x_max":305,"o":"m 68 916 l 305 916 l 305 780 q 271 644 305 712 l 237 576 l 136 576 l 102 644 q 68 780 68 712 l 68 916 z "},"(":{"ha":509,"x_min":68,"x_max":441,"o":"m 373 136 l 441 136 l 441 -68 l 254 -68 q 122 -13 177 -68 q 68 119 68 41 l 68 797 q 122 929 68 874 q 254 983 177 983 l 441 983 l 441 780 l 373 780 q 325 760 345 780 q 305 712 305 740 l 305 203 q 325 156 305 176 q 373 136 345 136 z "},")":{"ha":509,"x_min":68,"x_max":441,"o":"m 136 136 q 183 156 163 136 q 203 203 203 176 l 203 712 q 183 760 203 740 q 136 780 163 780 l 68 780 l 68 983 l 254 983 q 386 929 332 983 q 441 797 441 874 l 441 119 q 386 -13 441 41 q 254 -68 332 -68 l 68 -68 l 68 136 l 136 136 z "},"*":{"ha":848,"x_min":68,"x_max":780,"o":"m 646 629 l 746 509 l 543 373 l 424 515 l 305 373 l 102 509 l 202 629 l 68 644 l 136 882 l 305 863 l 305 983 l 543 983 l 543 863 l 712 882 l 780 644 l 646 629 z "},"+":{"ha":712,"x_min":68,"x_max":644,"o":"m 237 373 l 68 373 l 68 576 l 237 576 l 237 746 l 475 746 l 475 576 l 644 576 l 644 373 l 475 373 l 475 203 l 237 203 l 237 373 z "},",":{"ha":373,"x_min":68,"x_max":305,"o":"m 305 17 q 251 -115 305 -60 q 119 -170 196 -170 l 68 -170 l 68 203 l 305 203 l 305 17 z "},"-":{"ha":678,"x_min":68,"x_max":610,"o":"m 68 373 l 68 576 l 610 576 l 610 373 l 68 373 z "},".":{"ha":373,"x_min":68,"x_max":305,"o":"m 68 203 l 305 203 l 305 0 l 68 0 l 68 203 z "},"/":{"ha":746,"x_min":68,"x_max":678,"o":"m 305 0 l 68 0 l 441 916 l 678 916 l 305 0 z "},":":{"ha":373,"x_min":68,"x_max":305,"o":"m 68 203 l 305 203 l 305 0 l 68 0 l 68 203 m 68 576 l 305 576 l 305 373 l 68 373 l 68 576 z "},";":{"ha":373,"x_min":68,"x_max":305,"o":"m 68 576 l 305 576 l 305 373 l 68 373 l 68 576 m 305 17 q 251 -115 305 -60 q 119 -170 196 -170 l 68 -170 l 68 203 l 305 203 l 305 17 z "},"<":{"ha":678,"x_min":68,"x_max":610,"o":"m 68 509 l 339 780 l 610 780 l 339 509 l 610 237 l 339 237 l 68 509 z "},"=":{"ha":678,"x_min":68,"x_max":610,"o":"m 68 576 l 68 780 l 610 780 l 610 576 l 68 576 m 68 237 l 68 441 l 610 441 l 610 237 l 68 237 z "},">":{"ha":678,"x_min":68,"x_max":610,"o":"m 339 237 l 68 237 l 339 509 l 68 780 l 339 780 l 610 509 l 339 237 z "},"?":{"ha":746,"x_min":68,"x_max":678,"o":"m 136 271 l 136 373 q 373 576 136 576 q 421 596 401 576 q 441 644 441 616 q 421 692 441 672 q 373 712 401 712 l 68 712 l 68 916 l 407 916 q 599 836 519 916 q 678 644 678 757 q 599 452 678 532 q 407 373 519 373 q 373 339 373 373 l 373 271 l 136 271 m 373 203 l 373 0 l 136 0 l 136 203 l 373 203 z "},"@":{"ha":746,"x_min":68,"x_max":678,"o":"m 305 271 q 325 223 305 243 q 373 203 345 203 l 543 203 l 543 0 l 254 0 q 122 55 177 0 q 68 186 68 109 l 68 729 q 122 861 68 806 q 254 916 177 916 l 492 916 q 624 861 569 916 q 678 729 678 806 l 678 271 l 305 271 m 373 712 q 325 692 345 712 q 305 644 305 672 l 305 475 l 441 475 l 441 644 q 421 692 441 672 q 373 712 401 712 z "},"A":{"ha":814,"x_min":34,"x_max":780,"o":"m 497 203 l 373 712 l 68 712 l 68 916 l 475 916 q 593 831 576 916 l 780 0 l 34 0 l 162 576 l 399 576 l 317 203 l 497 203 z "},"B":{"ha":746,"x_min":68,"x_max":678,"o":"m 373 576 q 421 596 401 576 q 441 644 441 616 q 421 692 441 672 q 373 712 401 712 l 68 712 l 68 916 l 492 916 q 624 861 569 916 q 678 729 678 806 l 678 576 q 610 475 678 513 q 678 373 678 437 l 678 186 q 624 55 678 109 q 492 0 569 0 l 68 0 l 68 576 l 373 576 m 305 373 l 305 203 l 373 203 q 421 223 401 203 q 441 271 441 243 l 441 305 q 421 353 441 333 q 373 373 401 373 l 305 373 z "},"C":{"ha":678,"x_min":68,"x_max":610,"o":"m 373 203 l 610 203 l 610 0 l 254 0 q 122 55 177 0 q 68 186 68 109 l 68 729 q 122 861 68 806 q 254 916 177 916 l 610 916 l 610 712 l 373 712 q 325 692 345 712 q 305 644 305 672 l 305 271 q 325 223 305 243 q 373 203 345 203 z "},"D":{"ha":746,"x_min":68,"x_max":678,"o":"m 373 712 l 68 712 l 68 916 l 492 916 q 624 861 569 916 q 678 729 678 806 l 678 186 q 624 55 678 109 q 492 0 569 0 l 68 0 l 68 576 l 305 576 l 305 203 l 373 203 q 421 223 401 203 q 441 271 441 243 l 441 644 q 421 692 441 672 q 373 712 401 712 z "},"E":{"ha":678,"x_min":68,"x_max":610,"o":"m 68 712 l 68 916 l 610 916 l 610 712 l 68 712 m 68 576 l 543 576 l 543 373 l 305 373 l 305 203 l 610 203 l 610 0 l 68 0 l 68 576 z "},"F":{"ha":678,"x_min":68,"x_max":610,"o":"m 543 576 l 543 373 l 305 373 l 305 0 l 68 0 l 68 576 l 543 576 m 68 712 l 68 916 l 610 916 l 610 712 l 68 712 z "},"G":{"ha":746,"x_min":68,"x_max":678,"o":"m 678 576 l 678 186 q 624 55 678 109 q 492 0 569 0 l 254 0 q 122 55 177 0 q 68 186 68 109 l 68 729 q 122 861 68 806 q 254 916 177 916 l 678 916 l 678 712 l 373 712 q 325 692 345 712 q 305 644 305 672 l 305 271 q 325 223 305 243 q 373 203 345 203 q 421 223 401 203 q 441 271 441 243 l 441 373 l 373 373 l 373 576 l 678 576 z "},"H":{"ha":746,"x_min":68,"x_max":678,"o":"m 305 356 l 305 0 l 68 0 l 68 916 l 305 916 l 305 576 l 441 576 l 441 916 l 678 916 l 678 0 l 441 0 l 441 356 l 305 356 z "},"I":{"ha":373,"x_min":68,"x_max":305,"o":"m 305 916 l 305 0 l 68 0 l 68 916 l 305 916 z "},"J":{"ha":509,"x_min":68,"x_max":441,"o":"m 203 916 l 441 916 l 441 186 q 386 55 441 109 q 254 0 332 0 l 68 0 l 68 203 l 136 203 q 183 223 163 203 q 203 271 203 243 l 203 916 z "},"K":{"ha":814,"x_min":68,"x_max":848,"o":"m 304 719 l 441 848 q 509 899 475 882 q 610 916 543 916 l 746 916 l 746 712 l 68 712 l 68 916 l 304 916 l 304 719 m 305 373 l 305 0 l 68 0 l 68 576 l 339 576 q 543 475 475 576 l 848 0 l 576 0 l 357 373 l 305 373 z "},"L":{"ha":678,"x_min":68,"x_max":610,"o":"m 68 916 l 305 916 l 305 203 l 610 203 l 610 0 l 68 0 l 68 916 z "},"M":{"ha":983,"x_min":68,"x_max":916,"o":"m 678 644 q 658 692 678 672 q 610 712 638 712 l 68 712 l 68 916 l 729 916 q 861 861 806 916 q 916 729 916 806 l 916 0 l 678 0 l 678 644 m 610 0 l 373 0 l 373 576 l 610 576 l 610 0 m 305 0 l 68 0 l 68 576 l 305 576 l 305 0 z "},"N":{"ha":746,"x_min":68,"x_max":678,"o":"m 441 644 q 421 692 441 672 q 373 712 401 712 l 68 712 l 68 916 l 492 916 q 624 861 569 916 q 678 729 678 806 l 678 0 l 441 0 l 441 644 m 305 0 l 68 0 l 68 576 l 305 576 l 305 0 z "},"O":{"ha":746,"x_min":68,"x_max":678,"o":"m 254 0 q 122 55 177 0 q 68 186 68 109 l 68 729 q 122 861 68 806 q 254 916 177 916 l 492 916 q 624 861 569 916 q 678 729 678 806 l 678 186 q 624 55 678 109 q 492 0 569 0 l 254 0 m 305 271 q 325 223 305 243 q 373 203 345 203 q 421 223 401 203 q 441 271 441 243 l 441 644 q 421 692 441 672 q 373 712 401 712 q 325 692 345 712 q 305 644 305 672 l 305 271 z "},"P":{"ha":746,"x_min":68,"x_max":678,"o":"m 68 712 l 68 916 l 492 916 q 624 861 569 916 q 678 729 678 806 l 678 559 q 624 428 678 482 q 492 373 569 373 l 305 373 l 305 0 l 68 0 l 68 576 l 373 576 q 421 596 401 576 q 441 644 441 616 q 421 692 441 672 q 373 712 401 712 l 68 712 z "},"Q":{"ha":746,"x_min":68,"x_max":678,"o":"m 305 271 q 325 223 305 243 q 373 203 345 203 q 421 223 401 203 q 441 271 441 243 l 441 644 q 421 692 441 672 q 373 712 401 712 q 325 692 345 712 q 305 644 305 672 l 305 271 m 373 0 l 254 0 q 122 55 177 0 q 68 186 68 109 l 68 729 q 122 861 68 806 q 254 916 177 916 l 492 916 q 624 861 569 916 q 678 729 678 806 l 678 136 q 644 51 678 89 q 678 -34 678 13 l 678 -136 l 441 -136 l 441 -68 q 421 -20 441 -40 q 373 0 401 0 z "},"R":{"ha":746,"x_min":68,"x_max":678,"o":"m 68 0 l 68 576 l 441 576 l 441 644 q 421 692 441 672 q 373 712 401 712 l 68 712 l 68 916 l 492 916 q 624 861 569 916 q 678 729 678 806 l 678 509 q 610 407 678 445 q 678 305 678 369 l 678 0 l 441 0 l 441 305 q 421 353 441 333 q 373 373 401 373 l 305 373 l 305 0 l 68 0 z "},"S":{"ha":746,"x_min":68,"x_max":678,"o":"m 373 373 l 339 373 q 147 452 227 373 q 68 644 68 532 q 147 836 68 757 q 339 916 227 916 l 543 916 l 543 712 l 373 712 q 325 692 345 712 q 305 644 305 672 q 325 596 305 616 q 373 576 345 576 l 407 576 q 599 497 519 576 q 678 305 678 418 l 678 271 q 599 79 678 159 q 407 0 519 0 l 68 0 l 68 203 l 373 203 q 421 223 401 203 q 441 271 441 243 l 441 305 q 421 353 441 333 q 373 373 401 373 z "},"T":{"ha":712,"x_min":68,"x_max":644,"o":"m 475 576 l 475 0 l 237 0 l 237 576 l 475 576 m 68 712 l 68 916 l 644 916 l 644 712 l 68 712 z "},"U":{"ha":746,"x_min":68,"x_max":678,"o":"m 441 916 l 678 916 l 678 186 q 624 55 678 109 q 492 0 569 0 l 254 0 q 122 55 177 0 q 68 186 68 109 l 68 916 l 305 916 l 305 271 q 325 223 305 243 q 373 203 345 203 q 421 223 401 203 q 441 271 441 243 l 441 916 z "},"V":{"ha":814,"x_min":34,"x_max":780,"o":"m 407 305 l 543 916 l 780 916 l 576 0 l 339 0 q 220 85 237 0 l 34 916 l 271 916 l 407 305 z "},"W":{"ha":1356,"x_min":34,"x_max":1322,"o":"m 679 460 l 576 0 l 339 0 q 220 85 237 0 l 34 916 l 271 916 l 407 305 l 543 916 l 814 916 l 949 305 l 1085 916 l 1322 916 l 1119 0 l 882 0 q 763 85 780 0 l 679 460 z "},"X":{"ha":746,"x_min":34,"x_max":712,"o":"m 254 459 l 68 916 l 305 916 l 373 749 l 407 831 q 543 916 441 916 l 712 916 l 712 712 l 627 712 q 576 662 595 712 l 492 457 l 678 0 l 441 0 l 373 167 l 339 85 q 203 0 305 0 l 34 0 l 34 203 l 119 203 q 170 254 151 203 l 254 459 z "},"Y":{"ha":746,"x_min":68,"x_max":678,"o":"m 373 576 q 421 596 401 576 q 441 644 441 616 l 441 916 l 678 916 l 678 559 q 624 428 678 482 q 492 373 569 373 l 492 0 l 254 0 l 254 373 q 122 428 177 373 q 68 559 68 482 l 68 916 l 305 916 l 305 644 q 325 596 305 616 q 373 576 345 576 z "},"Z":{"ha":678,"x_min":68,"x_max":610,"o":"m 373 712 l 68 712 l 68 916 l 610 916 l 610 678 l 305 203 l 610 203 l 610 0 l 68 0 l 68 237 l 373 712 z "},"[":{"ha":509,"x_min":68,"x_max":441,"o":"m 305 136 l 441 136 l 441 -68 l 68 -68 l 68 983 l 441 983 l 441 780 l 305 780 l 305 136 z "},"\\":{"ha":746,"x_min":68,"x_max":678,"o":"m 68 916 l 305 916 l 678 0 l 441 0 l 68 916 z "},"]":{"ha":509,"x_min":68,"x_max":441,"o":"m 203 780 l 68 780 l 68 983 l 441 983 l 441 -68 l 68 -68 l 68 136 l 203 136 l 203 780 z "},"^":{"ha":678,"x_min":68,"x_max":610,"o":"m 339 1043 l 305 983 l 68 983 l 237 1221 l 441 1221 l 610 983 l 373 983 l 339 1043 z "},"_":{"ha":814,"x_min":0,"x_max":712,"o":"m 0 0 l 712 0 l 712 -203 l 0 -203 l 0 0 z "},"`":{"ha":610,"x_min":68,"x_max":543,"o":"m 68 1221 l 407 1221 l 543 983 l 373 983 l 68 1221 z "},"a":{"ha":746,"x_min":68,"x_max":678,"o":"m 339 271 q 315 261 325 271 q 305 237 305 252 q 315 213 305 223 q 339 203 325 203 l 441 203 l 441 271 l 339 271 m 407 509 l 203 509 l 203 711 l 492 712 q 624 657 569 712 q 678 526 678 603 l 678 0 l 305 0 q 137 70 207 0 q 68 237 68 139 q 137 405 68 336 q 305 475 207 475 l 441 475 q 431 499 441 489 q 407 509 421 509 z "},"b":{"ha":746,"x_min":68,"x_max":678,"o":"m 68 0 l 68 916 l 305 916 l 305 712 l 492 712 q 624 657 569 712 q 678 526 678 603 l 678 186 q 624 55 678 109 q 492 0 569 0 l 68 0 m 305 203 l 373 203 q 421 223 401 203 q 441 271 441 243 l 441 441 q 421 489 441 469 q 373 509 401 509 q 325 489 345 509 q 305 441 305 469 l 305 203 z "},"c":{"ha":678,"x_min":68,"x_max":610,"o":"m 373 203 l 610 203 l 610 0 l 254 0 q 122 55 177 0 q 68 186 68 109 l 68 526 q 122 657 68 603 q 254 712 177 712 l 610 712 l 610 509 l 373 509 q 325 489 345 509 q 305 441 305 469 l 305 271 q 325 223 305 243 q 373 203 345 203 z "},"d":{"ha":746,"x_min":68,"x_max":678,"o":"m 254 0 q 122 55 177 0 q 68 186 68 109 l 68 526 q 122 657 68 603 q 254 712 177 712 l 441 712 l 441 916 l 678 916 l 678 0 l 254 0 m 441 441 q 421 489 441 469 q 373 509 401 509 q 325 489 345 509 q 305 441 305 469 l 305 271 q 325 223 305 243 q 373 203 345 203 l 441 203 l 441 441 z "},"e":{"ha":746,"x_min":68,"x_max":678,"o":"m 441 441 q 421 489 441 469 q 373 509 401 509 q 325 489 345 509 q 305 441 305 469 l 441 441 m 339 203 l 610 203 l 610 0 l 254 0 q 122 55 177 0 q 68 186 68 109 l 68 526 q 122 657 68 603 q 254 712 177 712 l 492 712 q 624 657 569 712 q 678 526 678 603 l 678 237 l 305 237 q 315 213 305 223 q 339 203 325 203 z "},"f":{"ha":610,"x_min":68,"x_max":543,"o":"m 373 576 l 543 576 l 543 373 l 373 373 l 373 0 l 136 0 l 136 373 l 68 373 l 68 576 l 136 576 l 136 729 q 190 861 136 806 q 322 916 245 916 l 543 916 l 543 712 l 441 712 q 393 692 413 712 q 373 644 373 672 l 373 576 z "},"g":{"ha":746,"x_min":68,"x_max":678,"o":"m 305 271 q 325 223 305 243 q 373 203 345 203 q 421 223 401 203 q 441 271 441 243 l 441 509 l 373 509 q 325 489 345 509 q 305 441 305 469 l 305 271 m 441 0 l 254 0 q 122 55 177 0 q 68 186 68 109 l 68 526 q 122 657 68 603 q 254 712 177 712 l 678 712 l 678 -85 q 624 -217 678 -162 q 492 -271 569 -271 l 203 -271 l 203 -68 l 373 -68 q 421 -48 401 -68 q 441 0 441 -28 z "},"h":{"ha":746,"x_min":68,"x_max":678,"o":"m 305 712 l 492 712 q 624 657 569 712 q 678 526 678 603 l 678 0 l 441 0 l 441 441 q 421 489 441 469 q 373 509 401 509 l 305 509 l 305 0 l 68 0 l 68 916 l 305 916 l 305 712 z "},"i":{"ha":373,"x_min":68,"x_max":305,"o":"m 68 712 l 305 712 l 305 0 l 68 0 l 68 712 m 68 916 l 305 916 l 305 780 l 68 780 l 68 916 z "},"j":{"ha":373,"x_min":-68,"x_max":305,"o":"m 68 712 l 305 712 l 305 -85 q 251 -217 305 -162 q 119 -271 196 -271 l -68 -271 l -68 -68 l 0 -68 q 48 -48 28 -68 q 68 0 68 -28 l 68 712 m 305 916 l 305 780 l 68 780 l 68 916 l 305 916 z "},"k":{"ha":746,"x_min":68,"x_max":746,"o":"m 678 712 l 678 509 l 529 509 l 477 437 l 746 0 l 509 0 l 348 262 l 305 203 l 305 0 l 68 0 l 68 916 l 305 916 l 305 527 l 390 644 q 509 712 441 712 l 678 712 z "},"l":{"ha":339,"x_min":0,"x_max":237,"o":"m 237 916 l 237 0 l 0 0 l 0 916 l 237 916 z "},"m":{"ha":983,"x_min":68,"x_max":916,"o":"m 729 712 q 861 657 806 712 q 916 526 916 603 l 916 0 l 678 0 l 678 441 q 658 489 678 469 q 610 509 638 509 l 610 0 l 373 0 l 373 509 l 305 509 l 305 0 l 68 0 l 68 712 l 729 712 z "},"n":{"ha":746,"x_min":68,"x_max":678,"o":"m 305 0 l 68 0 l 68 712 l 492 712 q 624 657 569 712 q 678 526 678 603 l 678 0 l 441 0 l 441 441 q 421 489 441 469 q 373 509 401 509 l 305 509 l 305 0 z "},"o":{"ha":746,"x_min":68,"x_max":678,"o":"m 254 0 q 122 55 177 0 q 68 186 68 109 l 68 526 q 122 657 68 603 q 254 712 177 712 l 492 712 q 624 657 569 712 q 678 526 678 603 l 678 186 q 624 55 678 109 q 492 0 569 0 l 254 0 m 305 271 q 325 223 305 243 q 373 203 345 203 q 421 223 401 203 q 441 271 441 243 l 441 441 q 421 489 441 469 q 373 509 401 509 q 325 489 345 509 q 305 441 305 469 l 305 271 z "},"p":{"ha":746,"x_min":68,"x_max":678,"o":"m 492 712 q 624 657 569 712 q 678 526 678 603 l 678 186 q 624 55 678 109 q 492 0 569 0 l 305 0 l 305 -271 l 68 -271 l 68 712 l 492 712 m 305 271 q 325 223 305 243 q 373 203 345 203 q 421 223 401 203 q 441 271 441 243 l 441 441 q 421 489 441 469 q 373 509 401 509 l 305 509 l 305 271 z "},"q":{"ha":746,"x_min":68,"x_max":678,"o":"m 678 712 l 678 -271 l 441 -271 l 441 0 l 254 0 q 122 55 177 0 q 68 186 68 109 l 68 526 q 122 657 68 603 q 254 712 177 712 l 678 712 m 441 509 l 373 509 q 325 489 345 509 q 305 441 305 469 l 305 271 q 325 223 305 243 q 373 203 345 203 q 421 223 401 203 q 441 271 441 243 l 441 509 z "},"r":{"ha":746,"x_min":68,"x_max":678,"o":"m 305 0 l 68 0 l 68 712 l 492 712 q 624 657 569 712 q 678 526 678 603 l 678 441 l 441 441 q 421 489 441 469 q 373 509 401 509 l 305 509 l 305 0 z "},"s":{"ha":746,"x_min":68,"x_max":678,"o":"m 288 254 q 135 321 199 257 q 68 483 68 389 q 135 645 68 578 q 296 712 202 712 l 543 712 l 543 509 l 331 509 q 313 501 320 509 q 305 484 305 494 q 313 465 305 473 q 331 458 320 458 l 450 458 q 611 391 544 458 q 678 229 678 323 q 611 67 678 134 q 450 0 544 0 l 68 0 l 68 203 l 424 203 l 424 205 q 433 211 429 207 q 441 229 441 218 q 433 247 441 239 q 424 253 429 251 l 424 254 l 288 254 z "},"t":{"ha":610,"x_min":68,"x_max":543,"o":"m 373 271 q 393 223 373 243 q 441 203 413 203 l 543 203 l 543 0 l 322 0 q 190 55 245 0 q 136 186 136 109 l 136 509 l 68 509 l 68 712 l 136 712 l 136 916 l 373 916 l 373 712 l 543 712 l 543 509 l 373 509 l 373 271 z "},"u":{"ha":746,"x_min":68,"x_max":678,"o":"m 441 712 l 678 712 l 678 0 l 254 0 q 122 55 177 0 q 68 186 68 109 l 68 712 l 305 712 l 305 271 q 325 223 305 243 q 373 203 345 203 l 441 203 l 441 712 z "},"v":{"ha":746,"x_min":34,"x_max":712,"o":"m 288 0 q 186 68 203 0 l 34 712 l 271 712 l 373 285 l 475 712 l 712 712 l 543 0 l 288 0 z "},"w":{"ha":1221,"x_min":34,"x_max":1187,"o":"m 610 283 l 543 0 l 288 0 q 186 68 203 0 l 34 712 l 271 712 l 373 285 l 475 712 l 746 712 l 848 285 l 949 712 l 1187 712 l 1017 0 l 763 0 q 661 68 678 0 l 610 283 z "},"x":{"ha":746,"x_min":34,"x_max":712,"o":"m 254 356 l 34 712 l 271 712 l 372 549 l 441 661 q 543 712 475 712 l 712 712 l 712 509 l 644 509 q 543 441 586 509 l 491 357 l 712 0 l 475 0 l 374 163 l 305 51 q 203 0 271 0 l 34 0 l 34 203 l 102 203 q 203 272 160 203 l 254 356 z "},"y":{"ha":746,"x_min":68,"x_max":678,"o":"m 441 0 l 254 0 q 122 55 177 0 q 68 186 68 109 l 68 712 l 305 712 l 305 271 q 325 223 305 243 q 373 203 345 203 l 441 203 l 441 712 l 678 712 l 678 -85 q 624 -217 678 -162 q 492 -271 569 -271 l 203 -271 l 203 -68 l 373 -68 q 421 -48 401 -68 q 441 0 441 -28 z "},"z":{"ha":746,"x_min":68,"x_max":678,"o":"m 407 509 l 68 509 l 68 712 l 678 712 l 678 475 l 339 203 l 678 203 l 678 0 l 68 0 l 68 237 l 407 509 z "},"{":{"ha":610,"x_min":68,"x_max":543,"o":"m 407 373 l 407 203 q 427 156 407 176 q 475 136 447 136 l 543 136 l 543 -68 l 356 -68 q 224 -13 279 -68 q 170 119 170 41 l 170 305 q 150 353 170 333 q 102 373 130 373 l 68 373 l 68 576 l 102 576 q 150 596 130 576 q 170 644 170 616 l 170 797 q 224 929 170 874 q 356 983 279 983 l 543 983 l 543 780 l 475 780 q 427 760 447 780 q 407 712 407 740 l 407 576 q 339 475 407 513 q 407 373 407 437 z "},"|":{"ha":373,"x_min":68,"x_max":305,"o":"m 305 -68 l 68 -68 l 68 983 l 305 983 l 305 -68 z "},"}":{"ha":610,"x_min":68,"x_max":543,"o":"m 203 373 q 271 475 203 437 q 203 576 203 513 l 203 712 q 183 760 203 740 q 136 780 163 780 l 68 780 l 68 983 l 254 983 q 386 929 332 983 q 441 797 441 874 l 441 644 q 461 596 441 616 q 509 576 481 576 l 543 576 l 543 373 l 509 373 q 461 353 481 373 q 441 305 441 333 l 441 119 q 386 -13 441 41 q 254 -68 332 -68 l 68 -68 l 68 136 l 136 136 q 183 156 163 136 q 203 203 203 176 l 203 373 z "},"~":{"ha":746,"x_min":68,"x_max":678,"o":"m 203 1187 q 271 1221 237 1221 q 424 1170 305 1221 l 475 1221 l 678 1153 l 543 1017 q 475 983 509 983 q 322 1034 441 983 l 271 983 l 68 1051 l 203 1187 z "},"¡":{"ha":373,"x_min":68,"x_max":305,"o":"m 305 712 l 68 712 l 68 916 l 305 916 l 305 712 m 305 644 l 305 0 l 68 0 l 68 644 l 305 644 z "},"¢":{"ha":678,"x_min":68,"x_max":610,"o":"m 475 68 l 475 0 l 237 0 l 237 68 q 123 123 171 74 q 68 254 68 177 l 68 526 q 123 658 68 603 q 237 711 171 706 l 237 780 l 475 780 l 475 712 l 610 712 l 610 509 l 373 509 q 325 489 345 509 q 305 441 305 469 l 305 339 q 325 291 305 311 q 373 271 345 271 l 610 271 l 610 68 l 475 68 z "},"£":{"ha":678,"x_min":68,"x_max":610,"o":"m 136 203 l 136 373 l 68 373 l 68 576 l 136 576 l 136 729 q 190 861 136 806 q 322 916 245 916 l 543 916 l 543 712 l 441 712 q 393 692 413 712 q 373 644 373 672 l 373 576 l 543 576 l 543 373 l 373 373 l 373 203 l 610 203 l 610 0 l 68 0 l 68 203 l 136 203 z "},"¤":{"ha":746,"x_min":34,"x_max":712,"o":"m 305 424 q 325 376 305 396 q 373 356 345 356 q 421 376 401 356 q 441 424 441 396 l 441 492 q 421 539 441 519 q 373 559 401 559 q 325 539 345 559 q 305 492 305 519 l 305 424 m 367 153 l 339 85 q 203 0 305 0 l 34 0 l 34 203 l 119 203 q 125 204 122 203 q 123 208 124 205 q 68 339 68 262 l 68 576 q 123 709 68 654 q 144 728 133 719 l 68 916 l 305 916 l 367 763 l 379 763 l 407 831 q 543 916 441 916 l 712 916 l 712 712 l 627 712 q 621 711 624 712 q 624 709 622 710 q 678 576 678 654 l 678 339 q 624 208 678 262 q 602 188 613 197 l 678 0 l 441 0 l 379 153 l 367 153 z "},"¥":{"ha":746,"x_min":68,"x_max":678,"o":"m 492 68 l 492 0 l 254 0 l 254 68 l 136 68 l 136 271 l 254 271 l 254 339 l 136 339 l 136 543 l 146 543 q 123 564 134 551 q 68 695 68 618 l 68 916 l 305 916 l 305 780 q 325 732 305 752 q 373 712 345 712 q 421 732 401 712 q 441 780 441 752 l 441 916 l 678 916 l 678 695 q 624 564 678 618 q 600 543 612 551 l 610 543 l 610 339 l 492 339 l 492 271 l 610 271 l 610 68 l 492 68 z "},"¦":{"ha":373,"x_min":68,"x_max":305,"o":"m 305 407 l 305 -68 l 68 -68 l 68 407 l 305 407 m 68 543 l 68 983 l 305 983 l 305 543 l 68 543 z "},"§":{"ha":746,"x_min":68,"x_max":678,"o":"m 305 424 q 325 376 305 396 q 373 356 345 356 q 421 376 401 356 q 441 424 441 396 l 441 492 q 421 539 441 519 q 373 559 401 559 q 325 539 345 559 q 305 492 305 519 l 305 424 m 677 323 q 678 305 678 315 l 678 203 q 599 12 678 91 q 407 -68 519 -68 l 68 -68 l 68 136 l 373 136 q 418 153 399 136 l 254 153 q 122 207 177 153 q 68 339 68 262 l 68 576 q 70 607 68 592 q 68 644 68 625 l 68 712 q 147 904 68 825 q 339 983 227 983 l 543 983 l 543 780 l 373 780 q 328 763 347 780 l 492 763 q 624 708 569 763 q 678 576 678 654 l 678 339 q 677 323 678 332 z "},"¨":{"ha":678,"x_min":68,"x_max":610,"o":"m 373 1221 l 610 1221 l 610 1017 l 373 1017 l 373 1221 m 68 1221 l 305 1221 l 305 1017 l 68 1017 l 68 1221 z "},"©":{"ha":610,"x_min":68,"x_max":543,"o":"m 305 610 l 424 610 l 424 509 l 246 509 q 180 536 208 509 q 153 602 153 564 l 153 823 q 180 888 153 861 q 246 916 208 916 l 424 916 l 424 814 l 305 814 q 281 804 292 814 q 271 780 271 794 l 271 644 q 281 621 271 631 q 305 610 292 610 m 305 983 q 161 904 221 983 q 102 712 102 825 q 161 520 102 600 q 305 441 221 441 q 449 520 389 441 q 509 712 509 600 q 449 904 509 825 q 305 983 389 983 m 305 1017 q 473 928 404 1017 q 543 712 543 838 q 473 496 543 586 q 305 407 404 407 q 137 496 207 407 q 68 712 68 586 q 137 928 68 838 q 305 1017 207 1017 z "},"ª":{"ha":1119,"x_min":0,"x_max":1017,"o":"m 136 0 q 0 136 0 0 l 0 882 q 136 1017 0 1017 l 882 1017 q 1017 882 1017 1017 l 1017 136 q 882 0 1017 0 l 136 0 m 882 17 q 1000 136 1000 17 l 1000 882 q 882 1000 1000 1000 l 136 1000 q 17 882 18 1000 l 17 136 q 136 17 18 17 l 882 17 z "},"«":{"ha":1017,"x_min":68,"x_max":949,"o":"m 68 509 l 339 780 l 610 780 l 339 509 l 610 237 l 339 237 l 68 509 m 407 509 l 678 780 l 949 780 l 678 509 l 949 237 l 678 237 l 407 509 z "},"¬":{"ha":1119,"x_min":0,"x_max":1017,"o":"m 136 0 q 0 136 0 0 l 0 882 q 136 1017 0 1017 l 882 1017 q 1017 882 1017 1017 l 1017 136 q 882 0 1017 0 l 136 0 m 882 17 q 1000 136 1000 17 l 1000 882 q 882 1000 1000 1000 l 136 1000 q 17 882 18 1000 l 17 136 q 136 17 18 17 l 882 17 z "},"®":{"ha":746,"x_min":68,"x_max":543,"o":"m 458 532 q 509 712 509 608 q 449 904 509 825 q 305 983 389 983 q 170 916 227 983 l 365 916 q 431 888 404 916 q 458 823 458 861 l 458 729 q 424 678 458 697 q 458 627 458 659 l 458 532 m 153 892 q 102 712 102 816 q 153 532 102 608 l 153 763 l 339 763 l 339 780 q 329 804 339 794 q 305 814 319 814 l 153 814 l 153 892 m 170 509 q 305 441 227 441 q 440 509 383 441 l 339 509 l 339 627 q 329 651 339 642 q 305 661 319 661 l 271 661 l 271 509 l 170 509 m 473 928 q 508 883 473 928 q 543 712 543 838 q 473 496 543 586 q 305 407 404 407 q 137 496 207 407 q 68 712 68 586 q 137 928 68 838 q 305 1017 207 1017 q 473 928 404 1017 z "},"¯":{"ha":1119,"x_min":0,"x_max":1017,"o":"m 136 0 q 0 136 0 0 l 0 882 q 136 1017 0 1017 l 882 1017 q 1017 882 1017 1017 l 1017 136 q 882 0 1017 0 l 136 0 m 882 17 q 1000 136 1000 17 l 1000 882 q 882 1000 1000 1000 l 136 1000 q 17 882 18 1000 l 17 136 q 136 17 18 17 l 882 17 z "},"°":{"ha":1119,"x_min":0,"x_max":1017,"o":"m 136 0 q 0 136 0 0 l 0 882 q 136 1017 0 1017 l 882 1017 q 1017 882 1017 1017 l 1017 136 q 882 0 1017 0 l 136 0 m 882 17 q 1000 136 1000 17 l 1000 882 q 882 1000 1000 1000 l 136 1000 q 17 882 18 1000 l 17 136 q 136 17 18 17 l 882 17 z "},"±":{"ha":1119,"x_min":0,"x_max":1017,"o":"m 136 0 q 0 136 0 0 l 0 882 q 136 1017 0 1017 l 882 1017 q 1017 882 1017 1017 l 1017 136 q 882 0 1017 0 l 136 0 m 882 17 q 1000 136 1000 17 l 1000 882 q 882 1000 1000 1000 l 136 1000 q 17 882 18 1000 l 17 136 q 136 17 18 17 l 882 17 z "},"²":{"ha":1119,"x_min":0,"x_max":1017,"o":"m 136 0 q 0 136 0 0 l 0 882 q 136 1017 0 1017 l 882 1017 q 1017 882 1017 1017 l 1017 136 q 882 0 1017 0 l 136 0 m 882 17 q 1000 136 1000 17 l 1000 882 q 882 1000 1000 1000 l 136 1000 q 17 882 18 1000 l 17 136 q 136 17 18 17 l 882 17 z "},"³":{"ha":1119,"x_min":0,"x_max":1017,"o":"m 136 0 q 0 136 0 0 l 0 882 q 136 1017 0 1017 l 882 1017 q 1017 882 1017 1017 l 1017 136 q 882 0 1017 0 l 136 0 m 882 17 q 1000 136 1000 17 l 1000 882 q 882 1000 1000 1000 l 136 1000 q 17 882 18 1000 l 17 136 q 136 17 18 17 l 882 17 z "},"´":{"ha":610,"x_min":68,"x_max":543,"o":"m 237 983 l 68 983 l 203 1221 l 543 1221 l 237 983 z "},"µ":{"ha":746,"x_min":68,"x_max":678,"o":"m 305 271 q 325 223 305 243 q 373 203 345 203 l 441 203 l 441 712 l 678 712 l 678 0 l 305 0 l 305 -271 l 68 -271 l 68 712 l 305 712 l 305 271 z "},"¶":{"ha":1119,"x_min":0,"x_max":1017,"o":"m 136 0 q 0 136 0 0 l 0 882 q 136 1017 0 1017 l 882 1017 q 1017 882 1017 1017 l 1017 136 q 882 0 1017 0 l 136 0 m 882 17 q 1000 136 1000 17 l 1000 882 q 882 1000 1000 1000 l 136 1000 q 17 882 18 1000 l 17 136 q 136 17 18 17 l 882 17 z "},"·":{"ha":373,"x_min":68,"x_max":305,"o":"m 68 576 l 305 576 l 305 373 l 68 373 l 68 576 z "},"¸":{"ha":509,"x_min":66,"x_max":441,"o":"m 203 68 l 440 68 l 441 -68 q 237 -271 441 -271 l 67 -271 l 66 -68 l 135 -68 q 203 0 203 -68 l 203 68 z "},"¹":{"ha":1119,"x_min":0,"x_max":1017,"o":"m 136 0 q 0 136 0 0 l 0 882 q 136 1017 0 1017 l 882 1017 q 1017 882 1017 1017 l 1017 136 q 882 0 1017 0 l 136 0 m 882 17 q 1000 136 1000 17 l 1000 882 q 882 1000 1000 1000 l 136 1000 q 17 882 18 1000 l 17 136 q 136 17 18 17 l 882 17 z "},"º":{"ha":1119,"x_min":0,"x_max":1017,"o":"m 136 0 q 0 136 0 0 l 0 882 q 136 1017 0 1017 l 882 1017 q 1017 882 1017 1017 l 1017 136 q 882 0 1017 0 l 136 0 m 882 17 q 1000 136 1000 17 l 1000 882 q 882 1000 1000 1000 l 136 1000 q 17 882 18 1000 l 17 136 q 136 17 18 17 l 882 17 z "},"»":{"ha":1017,"x_min":68,"x_max":949,"o":"m 678 237 l 407 237 l 678 509 l 407 780 l 678 780 l 949 509 l 678 237 m 339 237 l 68 237 l 339 509 l 68 780 l 339 780 l 610 509 l 339 237 z "},"¼":{"ha":1119,"x_min":0,"x_max":1017,"o":"m 136 0 q 0 136 0 0 l 0 882 q 136 1017 0 1017 l 882 1017 q 1017 882 1017 1017 l 1017 136 q 882 0 1017 0 l 136 0 m 882 17 q 1000 136 1000 17 l 1000 882 q 882 1000 1000 1000 l 136 1000 q 17 882 18 1000 l 17 136 q 136 17 18 17 l 882 17 z "},"½":{"ha":1119,"x_min":0,"x_max":1017,"o":"m 136 0 q 0 136 0 0 l 0 882 q 136 1017 0 1017 l 882 1017 q 1017 882 1017 1017 l 1017 136 q 882 0 1017 0 l 136 0 m 882 17 q 1000 136 1000 17 l 1000 882 q 882 1000 1000 1000 l 136 1000 q 17 882 18 1000 l 17 136 q 136 17 18 17 l 882 17 z "},"¾":{"ha":1119,"x_min":0,"x_max":1017,"o":"m 136 0 q 0 136 0 0 l 0 882 q 136 1017 0 1017 l 882 1017 q 1017 882 1017 1017 l 1017 136 q 882 0 1017 0 l 136 0 m 882 17 q 1000 136 1000 17 l 1000 882 q 882 1000 1000 1000 l 136 1000 q 17 882 18 1000 l 17 136 q 136 17 18 17 l 882 17 z "},"¿":{"ha":746,"x_min":68,"x_max":678,"o":"m 610 644 l 610 543 q 373 339 610 339 q 325 319 345 339 q 305 271 305 299 q 325 223 305 243 q 373 203 345 203 l 678 203 l 678 0 l 339 0 q 147 79 227 0 q 68 271 68 159 q 147 463 68 384 q 339 543 227 543 q 373 576 373 543 l 373 644 l 610 644 m 373 712 l 373 916 l 610 916 l 610 712 l 373 712 z "},"À":{"ha":814,"x_min":34,"x_max":780,"o":"m 497 203 l 373 712 l 68 712 l 68 916 l 475 916 q 593 831 576 916 l 780 0 l 34 0 l 162 576 l 399 576 l 317 203 l 497 203 m 170 1221 l 509 1221 l 644 983 l 475 983 l 170 1221 z "},"Á":{"ha":814,"x_min":34,"x_max":780,"o":"m 497 203 l 373 712 l 68 712 l 68 916 l 475 916 q 593 831 576 916 l 780 0 l 34 0 l 162 576 l 399 576 l 317 203 l 497 203 m 339 983 l 170 983 l 305 1221 l 644 1221 l 339 983 z "},"Â":{"ha":814,"x_min":34,"x_max":780,"o":"m 497 203 l 373 712 l 68 712 l 68 916 l 475 916 q 593 831 576 916 l 780 0 l 34 0 l 162 576 l 399 576 l 317 203 l 497 203 m 407 1043 l 373 983 l 136 983 l 305 1221 l 509 1221 l 678 983 l 441 983 l 407 1043 z "},"Ã":{"ha":814,"x_min":34,"x_max":780,"o":"m 497 203 l 373 712 l 68 712 l 68 916 l 475 916 q 593 831 576 916 l 780 0 l 34 0 l 162 576 l 399 576 l 317 203 l 497 203 m 237 1187 q 305 1221 271 1221 q 458 1170 339 1221 l 509 1221 l 712 1153 l 576 1017 q 509 983 543 983 q 356 1034 475 983 l 305 983 l 102 1051 l 237 1187 z "},"Ä":{"ha":814,"x_min":34,"x_max":780,"o":"m 497 203 l 373 712 l 68 712 l 68 916 l 475 916 q 593 831 576 916 l 780 0 l 34 0 l 162 576 l 399 576 l 317 203 l 497 203 m 441 1221 l 678 1221 l 678 1017 l 441 1017 l 441 1221 m 136 1221 l 373 1221 l 373 1017 l 136 1017 l 136 1221 z "},"Å":{"ha":814,"x_min":34,"x_max":780,"o":"m 497 203 l 373 712 l 68 712 l 68 916 l 475 916 q 593 831 576 916 l 780 0 l 34 0 l 162 576 l 399 576 l 317 203 l 497 203 m 407 983 q 311 1018 351 983 q 271 1102 271 1053 q 311 1186 271 1151 q 407 1221 351 1221 q 503 1186 463 1221 q 543 1102 543 1151 q 503 1018 543 1053 q 407 983 463 983 z "},"Æ":{"ha":1119,"x_min":34,"x_max":1051,"o":"m 1051 916 l 1051 712 l 746 712 l 746 576 l 983 576 l 983 373 l 746 373 l 746 203 l 1051 203 l 1051 0 l 34 0 l 162 576 l 399 576 l 317 203 l 497 203 l 373 712 l 68 712 l 68 916 l 1051 916 z "},"Ç":{"ha":678,"x_min":68,"x_max":610,"o":"m 307 0 l 254 0 q 122 55 177 0 q 68 186 68 109 l 68 729 q 122 861 68 806 q 254 916 177 916 l 610 916 l 610 712 l 373 712 q 325 692 345 712 q 305 644 305 672 l 305 271 q 325 223 305 243 q 373 203 345 203 l 610 203 l 610 0 l 544 0 l 544 -68 q 340 -271 544 -271 l 170 -271 l 170 -68 l 238 -68 q 307 0 307 -68 z "},"È":{"ha":678,"x_min":68,"x_max":610,"o":"m 68 712 l 68 916 l 610 916 l 610 712 l 68 712 m 68 576 l 543 576 l 543 373 l 305 373 l 305 203 l 610 203 l 610 0 l 68 0 l 68 576 m 102 1221 l 441 1221 l 576 983 l 407 983 l 102 1221 z "},"É":{"ha":678,"x_min":68,"x_max":610,"o":"m 68 712 l 68 916 l 610 916 l 610 712 l 68 712 m 68 576 l 543 576 l 543 373 l 305 373 l 305 203 l 610 203 l 610 0 l 68 0 l 68 576 m 271 983 l 102 983 l 237 1221 l 576 1221 l 271 983 z "},"Ê":{"ha":678,"x_min":68,"x_max":610,"o":"m 68 712 l 68 916 l 610 916 l 610 712 l 68 712 m 68 576 l 543 576 l 543 373 l 305 373 l 305 203 l 610 203 l 610 0 l 68 0 l 68 576 m 339 1043 l 305 983 l 68 983 l 237 1221 l 441 1221 l 610 983 l 373 983 l 339 1043 z "},"Ë":{"ha":678,"x_min":68,"x_max":610,"o":"m 68 712 l 68 916 l 610 916 l 610 712 l 68 712 m 68 576 l 543 576 l 543 373 l 305 373 l 305 203 l 610 203 l 610 0 l 68 0 l 68 576 m 373 1221 l 610 1221 l 610 1017 l 373 1017 l 373 1221 m 68 1221 l 305 1221 l 305 1017 l 68 1017 l 68 1221 z "},"Ì":{"ha":373,"x_min":-51,"x_max":424,"o":"m 305 916 l 305 0 l 68 0 l 68 916 l 305 916 m -51 1221 l 288 1221 l 424 983 l 254 983 l -51 1221 z "},"Í":{"ha":373,"x_min":-51,"x_max":424,"o":"m 305 916 l 305 0 l 68 0 l 68 916 l 305 916 m 119 983 l -51 983 l 85 1221 l 424 1221 l 119 983 z "},"Î":{"ha":373,"x_min":-85,"x_max":458,"o":"m 305 916 l 305 0 l 68 0 l 68 916 l 305 916 m 186 1043 l 153 983 l -85 983 l 85 1221 l 288 1221 l 458 983 l 220 983 l 186 1043 z "},"Ï":{"ha":373,"x_min":-85,"x_max":458,"o":"m 305 916 l 305 0 l 68 0 l 68 916 l 305 916 m 220 1221 l 458 1221 l 458 1017 l 220 1017 l 220 1221 m -85 1221 l 153 1221 l 153 1017 l -85 1017 l -85 1221 z "},"Ð":{"ha":814,"x_min":68,"x_max":746,"o":"m 373 373 l 373 203 l 441 203 q 489 223 469 203 q 509 271 509 243 l 509 644 q 489 692 509 672 q 441 712 469 712 l 136 712 l 136 916 l 559 916 q 691 861 637 916 q 746 729 746 806 l 746 186 q 691 55 746 109 q 559 0 637 0 l 136 0 l 136 373 l 68 373 l 68 576 l 441 576 l 441 373 l 373 373 z "},"Ñ":{"ha":746,"x_min":68,"x_max":678,"o":"m 441 644 q 421 692 441 672 q 373 712 401 712 l 68 712 l 68 916 l 492 916 q 624 861 569 916 q 678 729 678 806 l 678 0 l 441 0 l 441 644 m 305 0 l 68 0 l 68 576 l 305 576 l 305 0 m 203 1187 q 271 1221 237 1221 q 424 1170 305 1221 l 475 1221 l 678 1153 l 543 1017 q 475 983 509 983 q 322 1034 441 983 l 271 983 l 68 1051 l 203 1187 z "},"Ò":{"ha":746,"x_min":68,"x_max":678,"o":"m 254 0 q 122 55 177 0 q 68 186 68 109 l 68 729 q 122 861 68 806 q 254 916 177 916 l 492 916 q 624 861 569 916 q 678 729 678 806 l 678 186 q 624 55 678 109 q 492 0 569 0 l 254 0 m 305 271 q 325 223 305 243 q 373 203 345 203 q 421 223 401 203 q 441 271 441 243 l 441 644 q 421 692 441 672 q 373 712 401 712 q 325 692 345 712 q 305 644 305 672 l 305 271 m 136 1221 l 475 1221 l 610 983 l 441 983 l 136 1221 z "},"Ó":{"ha":746,"x_min":68,"x_max":678,"o":"m 254 0 q 122 55 177 0 q 68 186 68 109 l 68 729 q 122 861 68 806 q 254 916 177 916 l 492 916 q 624 861 569 916 q 678 729 678 806 l 678 186 q 624 55 678 109 q 492 0 569 0 l 254 0 m 305 271 q 325 223 305 243 q 373 203 345 203 q 421 223 401 203 q 441 271 441 243 l 441 644 q 421 692 441 672 q 373 712 401 712 q 325 692 345 712 q 305 644 305 672 l 305 271 m 305 983 l 136 983 l 271 1221 l 610 1221 l 305 983 z "},"Ô":{"ha":746,"x_min":68,"x_max":678,"o":"m 254 0 q 122 55 177 0 q 68 186 68 109 l 68 729 q 122 861 68 806 q 254 916 177 916 l 492 916 q 624 861 569 916 q 678 729 678 806 l 678 186 q 624 55 678 109 q 492 0 569 0 l 254 0 m 305 271 q 325 223 305 243 q 373 203 345 203 q 421 223 401 203 q 441 271 441 243 l 441 644 q 421 692 441 672 q 373 712 401 712 q 325 692 345 712 q 305 644 305 672 l 305 271 m 373 1043 l 339 983 l 102 983 l 271 1221 l 475 1221 l 644 983 l 407 983 l 373 1043 z "},"Õ":{"ha":746,"x_min":68,"x_max":678,"o":"m 254 0 q 122 55 177 0 q 68 186 68 109 l 68 729 q 122 861 68 806 q 254 916 177 916 l 492 916 q 624 861 569 916 q 678 729 678 806 l 678 186 q 624 55 678 109 q 492 0 569 0 l 254 0 m 305 271 q 325 223 305 243 q 373 203 345 203 q 421 223 401 203 q 441 271 441 243 l 441 644 q 421 692 441 672 q 373 712 401 712 q 325 692 345 712 q 305 644 305 672 l 305 271 m 203 1187 q 271 1221 237 1221 q 424 1170 305 1221 l 475 1221 l 678 1153 l 543 1017 q 475 983 509 983 q 322 1034 441 983 l 271 983 l 68 1051 l 203 1187 z "},"Ö":{"ha":746,"x_min":68,"x_max":678,"o":"m 254 0 q 122 55 177 0 q 68 186 68 109 l 68 729 q 122 861 68 806 q 254 916 177 916 l 492 916 q 624 861 569 916 q 678 729 678 806 l 678 186 q 624 55 678 109 q 492 0 569 0 l 254 0 m 305 271 q 325 223 305 243 q 373 203 345 203 q 421 223 401 203 q 441 271 441 243 l 441 644 q 421 692 441 672 q 373 712 401 712 q 325 692 345 712 q 305 644 305 672 l 305 271 m 407 1221 l 644 1221 l 644 1017 l 407 1017 l 407 1221 m 102 1221 l 339 1221 l 339 1017 l 102 1017 l 102 1221 z "},"×":{"ha":882,"x_min":68,"x_max":814,"o":"m 313 446 l 68 814 l 339 814 l 454 642 l 576 814 l 814 814 l 576 458 l 814 102 l 543 102 l 441 254 l 339 102 l 68 102 l 313 446 z "},"Ø":{"ha":746,"x_min":68,"x_max":678,"o":"m 424 689 q 421 692 422 690 q 373 712 401 712 q 325 692 345 712 q 305 644 305 672 l 305 527 l 424 689 m 322 227 q 326 224 323 225 q 373 203 345 203 q 421 223 401 203 q 441 271 441 243 l 441 389 l 322 227 m 678 186 q 624 55 678 109 q 492 0 569 0 l 254 0 q 122 55 177 0 q 68 186 68 109 l 68 729 q 122 861 68 806 q 254 916 177 916 l 492 916 q 624 861 569 916 q 678 729 678 806 l 678 186 z "},"Ù":{"ha":746,"x_min":68,"x_max":678,"o":"m 441 916 l 678 916 l 678 186 q 624 55 678 109 q 492 0 569 0 l 254 0 q 122 55 177 0 q 68 186 68 109 l 68 916 l 305 916 l 305 271 q 325 223 305 243 q 373 203 345 203 q 421 223 401 203 q 441 271 441 243 l 441 916 m 136 1221 l 475 1221 l 610 983 l 441 983 l 136 1221 z "},"Ú":{"ha":746,"x_min":68,"x_max":678,"o":"m 441 916 l 678 916 l 678 186 q 624 55 678 109 q 492 0 569 0 l 254 0 q 122 55 177 0 q 68 186 68 109 l 68 916 l 305 916 l 305 271 q 325 223 305 243 q 373 203 345 203 q 421 223 401 203 q 441 271 441 243 l 441 916 m 305 983 l 136 983 l 271 1221 l 610 1221 l 305 983 z "},"Û":{"ha":746,"x_min":68,"x_max":678,"o":"m 441 916 l 678 916 l 678 186 q 624 55 678 109 q 492 0 569 0 l 254 0 q 122 55 177 0 q 68 186 68 109 l 68 916 l 305 916 l 305 271 q 325 223 305 243 q 373 203 345 203 q 421 223 401 203 q 441 271 441 243 l 441 916 m 373 1043 l 339 983 l 102 983 l 271 1221 l 475 1221 l 644 983 l 407 983 l 373 1043 z "},"Ü":{"ha":746,"x_min":68,"x_max":678,"o":"m 441 916 l 678 916 l 678 186 q 624 55 678 109 q 492 0 569 0 l 254 0 q 122 55 177 0 q 68 186 68 109 l 68 916 l 305 916 l 305 271 q 325 223 305 243 q 373 203 345 203 q 421 223 401 203 q 441 271 441 243 l 441 916 m 407 1221 l 644 1221 l 644 1017 l 407 1017 l 407 1221 m 102 1221 l 339 1221 l 339 1017 l 102 1017 l 102 1221 z "},"Ý":{"ha":746,"x_min":68,"x_max":678,"o":"m 373 576 q 421 596 401 576 q 441 644 441 616 l 441 916 l 678 916 l 678 559 q 624 428 678 482 q 492 373 569 373 l 492 0 l 254 0 l 254 373 q 122 428 177 373 q 68 559 68 482 l 68 916 l 305 916 l 305 644 q 325 596 305 616 q 373 576 345 576 m 305 983 l 136 983 l 271 1221 l 610 1221 l 305 983 z "},"Þ":{"ha":746,"x_min":68,"x_max":678,"o":"m 68 916 l 305 916 l 305 746 l 492 746 q 624 691 569 746 q 678 559 678 637 l 678 390 q 624 258 678 313 q 492 203 569 203 l 305 203 l 305 0 l 68 0 l 68 916 m 305 543 l 305 407 l 373 407 q 421 427 401 407 q 441 475 441 447 q 421 523 441 503 q 373 543 401 543 l 305 543 z "},"ß":{"ha":746,"x_min":68,"x_max":678,"o":"m 305 644 l 305 0 l 68 0 l 68 729 q 122 861 68 806 q 254 916 177 916 l 492 916 q 624 861 569 916 q 678 729 678 806 l 678 576 q 610 475 678 513 q 678 373 678 437 l 678 186 q 624 55 678 109 q 492 0 569 0 l 339 0 l 339 203 l 373 203 q 421 223 401 203 q 441 271 441 243 l 441 305 q 421 353 441 333 q 373 373 401 373 l 339 373 l 339 576 l 373 576 q 421 596 401 576 q 441 644 441 616 q 421 692 441 672 q 373 712 401 712 q 325 692 345 712 q 305 644 305 672 z "},"à":{"ha":746,"x_min":68,"x_max":678,"o":"m 339 271 q 315 261 325 271 q 305 237 305 252 q 315 213 305 223 q 339 203 325 203 l 441 203 l 441 271 l 339 271 m 407 509 l 203 509 l 203 711 l 492 712 q 624 657 569 712 q 678 526 678 603 l 678 0 l 305 0 q 137 70 207 0 q 68 237 68 139 q 137 405 68 336 q 305 475 207 475 l 441 475 q 431 499 441 489 q 407 509 421 509 m 136 1017 l 475 1017 l 610 780 l 441 780 l 136 1017 z "},"á":{"ha":746,"x_min":68,"x_max":678,"o":"m 339 271 q 315 261 325 271 q 305 237 305 252 q 315 213 305 223 q 339 203 325 203 l 441 203 l 441 271 l 339 271 m 407 509 l 203 509 l 203 711 l 492 712 q 624 657 569 712 q 678 526 678 603 l 678 0 l 305 0 q 137 70 207 0 q 68 237 68 139 q 137 405 68 336 q 305 475 207 475 l 441 475 q 431 499 441 489 q 407 509 421 509 m 305 780 l 136 780 l 271 1017 l 610 1017 l 305 780 z "},"â":{"ha":746,"x_min":68,"x_max":678,"o":"m 339 271 q 315 261 325 271 q 305 237 305 252 q 315 213 305 223 q 339 203 325 203 l 441 203 l 441 271 l 339 271 m 407 509 l 203 509 l 203 711 l 492 712 q 624 657 569 712 q 678 526 678 603 l 678 0 l 305 0 q 137 70 207 0 q 68 237 68 139 q 137 405 68 336 q 305 475 207 475 l 441 475 q 431 499 441 489 q 407 509 421 509 m 373 840 l 339 780 l 102 780 l 271 1017 l 475 1017 l 644 780 l 407 780 l 373 840 z "},"ã":{"ha":746,"x_min":68,"x_max":678,"o":"m 339 271 q 315 261 325 271 q 305 237 305 252 q 315 213 305 223 q 339 203 325 203 l 441 203 l 441 271 l 339 271 m 407 509 l 203 509 l 203 711 l 492 712 q 624 657 569 712 q 678 526 678 603 l 678 0 l 305 0 q 137 70 207 0 q 68 237 68 139 q 137 405 68 336 q 305 475 207 475 l 441 475 q 431 499 441 489 q 407 509 421 509 m 203 983 q 271 1017 237 1017 q 424 966 305 1017 l 475 1017 l 678 949 l 543 814 q 475 780 509 780 q 322 831 441 780 l 271 780 l 68 848 l 203 983 z "},"ä":{"ha":746,"x_min":68,"x_max":678,"o":"m 339 271 q 315 261 325 271 q 305 237 305 252 q 315 213 305 223 q 339 203 325 203 l 441 203 l 441 271 l 339 271 m 407 509 l 203 509 l 203 711 l 492 712 q 624 657 569 712 q 678 526 678 603 l 678 0 l 305 0 q 137 70 207 0 q 68 237 68 139 q 137 405 68 336 q 305 475 207 475 l 441 475 q 431 499 441 489 q 407 509 421 509 m 407 983 l 644 983 l 644 780 l 407 780 l 407 983 m 102 983 l 339 983 l 339 780 l 102 780 l 102 983 z "},"å":{"ha":746,"x_min":68,"x_max":678,"o":"m 339 271 q 315 261 325 271 q 305 237 305 252 q 315 213 305 223 q 339 203 325 203 l 441 203 l 441 271 l 339 271 m 407 509 l 203 509 l 203 712 l 492 712 q 624 657 569 712 q 678 526 678 603 l 678 0 l 305 0 q 137 70 207 0 q 68 237 68 139 q 137 405 68 336 q 305 475 207 475 l 441 475 q 431 499 441 489 q 407 509 421 509 m 373 780 q 277 814 317 780 q 237 899 237 849 q 277 982 237 947 q 373 1017 317 1017 q 469 982 429 1017 q 509 899 509 947 q 469 814 509 849 q 373 780 429 780 z "},"æ":{"ha":1119,"x_min":68,"x_max":1051,"o":"m 339 271 q 315 261 325 271 q 305 237 305 252 q 315 213 305 223 q 339 203 325 203 l 441 203 l 441 271 l 339 271 m 814 441 q 794 489 814 469 q 746 509 774 509 q 698 489 718 509 q 678 441 678 469 l 814 441 m 441 475 q 431 499 441 489 q 407 509 421 509 l 203 509 l 203 711 l 492 712 q 559 700 528 712 q 627 712 591 712 l 865 712 q 997 657 942 712 q 1051 526 1051 603 l 1051 237 l 678 237 q 688 213 678 223 q 712 203 698 203 l 983 203 l 983 0 l 305 0 q 137 70 207 0 q 68 237 68 139 q 137 405 68 336 q 305 475 207 475 l 441 475 z "},"ç":{"ha":678,"x_min":68,"x_max":610,"o":"m 273 0 l 254 0 q 122 55 177 0 q 68 186 68 109 l 68 526 q 122 657 68 603 q 254 712 177 712 l 610 712 l 610 509 l 373 509 q 325 489 345 509 q 305 441 305 469 l 305 271 q 325 223 305 243 q 373 203 345 203 l 610 203 l 610 0 l 510 0 l 510 -68 q 307 -271 510 -271 l 136 -271 l 136 -68 l 204 -68 q 273 0 273 -68 z "},"è":{"ha":746,"x_min":68,"x_max":678,"o":"m 441 441 q 421 489 441 469 q 373 509 401 509 q 325 489 345 509 q 305 441 305 469 l 441 441 m 339 203 l 610 203 l 610 0 l 254 0 q 122 55 177 0 q 68 186 68 109 l 68 526 q 122 657 68 603 q 254 712 177 712 l 492 712 q 624 657 569 712 q 678 526 678 603 l 678 237 l 305 237 q 315 213 305 223 q 339 203 325 203 m 136 1017 l 475 1017 l 610 780 l 441 780 l 136 1017 z "},"é":{"ha":746,"x_min":68,"x_max":678,"o":"m 441 441 q 421 489 441 469 q 373 509 401 509 q 325 489 345 509 q 305 441 305 469 l 441 441 m 339 203 l 610 203 l 610 0 l 254 0 q 122 55 177 0 q 68 186 68 109 l 68 526 q 122 657 68 603 q 254 712 177 712 l 492 712 q 624 657 569 712 q 678 526 678 603 l 678 237 l 305 237 q 315 213 305 223 q 339 203 325 203 m 305 780 l 136 780 l 271 1017 l 610 1017 l 305 780 z "},"ê":{"ha":746,"x_min":68,"x_max":678,"o":"m 441 441 q 421 489 441 469 q 373 509 401 509 q 325 489 345 509 q 305 441 305 469 l 441 441 m 339 203 l 610 203 l 610 0 l 254 0 q 122 55 177 0 q 68 186 68 109 l 68 526 q 122 657 68 603 q 254 712 177 712 l 492 712 q 624 657 569 712 q 678 526 678 603 l 678 237 l 305 237 q 315 213 305 223 q 339 203 325 203 m 373 840 l 339 780 l 102 780 l 271 1017 l 475 1017 l 644 780 l 407 780 l 373 840 z "},"ë":{"ha":746,"x_min":68,"x_max":678,"o":"m 441 441 q 421 489 441 469 q 373 509 401 509 q 325 489 345 509 q 305 441 305 469 l 441 441 m 339 203 l 610 203 l 610 0 l 254 0 q 122 55 177 0 q 68 186 68 109 l 68 526 q 122 657 68 603 q 254 712 177 712 l 492 712 q 624 657 569 712 q 678 526 678 603 l 678 237 l 305 237 q 315 213 305 223 q 339 203 325 203 m 407 983 l 644 983 l 644 780 l 407 780 l 407 983 m 102 983 l 339 983 l 339 780 l 102 780 l 102 983 z "},"ì":{"ha":373,"x_min":-51,"x_max":424,"o":"m 305 712 l 305 0 l 68 0 l 68 712 l 305 712 m -51 1017 l 288 1017 l 424 780 l 254 780 l -51 1017 z "},"í":{"ha":373,"x_min":-51,"x_max":424,"o":"m 305 712 l 305 0 l 68 0 l 68 712 l 305 712 m 119 780 l -51 780 l 85 1017 l 424 1017 l 119 780 z "},"î":{"ha":373,"x_min":-85,"x_max":458,"o":"m 305 712 l 305 0 l 68 0 l 68 712 l 305 712 m 186 840 l 153 780 l -85 780 l 85 1017 l 288 1017 l 458 780 l 220 780 l 186 840 z "},"ï":{"ha":373,"x_min":-85,"x_max":458,"o":"m 305 712 l 305 0 l 68 0 l 68 712 l 305 712 m 220 1017 l 458 1017 l 458 814 l 220 814 l 220 1017 m -85 1017 l 153 1017 l 153 814 l -85 814 l -85 1017 z "},"ð":{"ha":746,"x_min":68,"x_max":678,"o":"m 373 441 q 325 421 345 441 q 305 373 305 401 l 305 271 q 325 223 305 243 q 373 203 345 203 l 373 441 m 610 644 l 678 644 l 678 441 l 610 441 l 610 0 l 254 0 q 122 55 177 0 q 68 186 68 109 l 68 458 q 122 590 68 535 q 254 644 177 644 l 373 644 q 353 692 373 672 q 305 712 333 712 l 203 712 l 203 916 l 424 916 q 556 861 501 916 q 610 729 610 806 l 610 644 z "},"ñ":{"ha":746,"x_min":68,"x_max":678,"o":"m 305 0 l 68 0 l 68 712 l 492 712 q 624 657 569 712 q 678 526 678 603 l 678 0 l 441 0 l 441 441 q 421 489 441 469 q 373 509 401 509 l 305 509 l 305 0 m 203 983 q 271 1017 237 1017 q 424 966 305 1017 l 475 1017 l 678 949 l 543 814 q 475 780 509 780 q 322 831 441 780 l 271 780 l 68 848 l 203 983 z "},"ò":{"ha":746,"x_min":68,"x_max":678,"o":"m 254 0 q 122 55 177 0 q 68 186 68 109 l 68 526 q 122 657 68 603 q 254 712 177 712 l 492 712 q 624 657 569 712 q 678 526 678 603 l 678 186 q 624 55 678 109 q 492 0 569 0 l 254 0 m 305 271 q 325 223 305 243 q 373 203 345 203 q 421 223 401 203 q 441 271 441 243 l 441 441 q 421 489 441 469 q 373 509 401 509 q 325 489 345 509 q 305 441 305 469 l 305 271 m 136 1017 l 475 1017 l 610 780 l 441 780 l 136 1017 z "},"ó":{"ha":746,"x_min":68,"x_max":678,"o":"m 254 0 q 122 55 177 0 q 68 186 68 109 l 68 526 q 122 657 68 603 q 254 712 177 712 l 492 712 q 624 657 569 712 q 678 526 678 603 l 678 186 q 624 55 678 109 q 492 0 569 0 l 254 0 m 305 271 q 325 223 305 243 q 373 203 345 203 q 421 223 401 203 q 441 271 441 243 l 441 441 q 421 489 441 469 q 373 509 401 509 q 325 489 345 509 q 305 441 305 469 l 305 271 m 305 780 l 136 780 l 271 1017 l 610 1017 l 305 780 z "},"ô":{"ha":746,"x_min":68,"x_max":678,"o":"m 254 0 q 122 55 177 0 q 68 186 68 109 l 68 526 q 122 657 68 603 q 254 712 177 712 l 492 712 q 624 657 569 712 q 678 526 678 603 l 678 186 q 624 55 678 109 q 492 0 569 0 l 254 0 m 305 271 q 325 223 305 243 q 373 203 345 203 q 421 223 401 203 q 441 271 441 243 l 441 441 q 421 489 441 469 q 373 509 401 509 q 325 489 345 509 q 305 441 305 469 l 305 271 m 373 840 l 339 780 l 102 780 l 271 1017 l 475 1017 l 644 780 l 407 780 l 373 840 z "},"õ":{"ha":746,"x_min":68,"x_max":678,"o":"m 254 0 q 122 55 177 0 q 68 186 68 109 l 68 526 q 122 657 68 603 q 254 712 177 712 l 492 712 q 624 657 569 712 q 678 526 678 603 l 678 186 q 624 55 678 109 q 492 0 569 0 l 254 0 m 305 271 q 325 223 305 243 q 373 203 345 203 q 421 223 401 203 q 441 271 441 243 l 441 441 q 421 489 441 469 q 373 509 401 509 q 325 489 345 509 q 305 441 305 469 l 305 271 m 203 983 q 271 1017 237 1017 q 424 966 305 1017 l 475 1017 l 678 949 l 543 814 q 475 780 509 780 q 322 831 441 780 l 271 780 l 68 848 l 203 983 z "},"ö":{"ha":746,"x_min":68,"x_max":678,"o":"m 254 0 q 122 55 177 0 q 68 186 68 109 l 68 526 q 122 657 68 603 q 254 712 177 712 l 492 712 q 624 657 569 712 q 678 526 678 603 l 678 186 q 624 55 678 109 q 492 0 569 0 l 254 0 m 305 271 q 325 223 305 243 q 373 203 345 203 q 421 223 401 203 q 441 271 441 243 l 441 441 q 421 489 441 469 q 373 509 401 509 q 325 489 345 509 q 305 441 305 469 l 305 271 m 407 983 l 644 983 l 644 780 l 407 780 l 407 983 m 102 983 l 339 983 l 339 780 l 102 780 l 102 983 z "},"÷":{"ha":644,"x_min":0,"x_max":543,"o":"m 0 339 l 0 543 l 543 543 l 543 339 l 0 339 m 153 271 l 390 271 l 390 68 l 153 68 l 153 271 m 153 814 l 390 814 l 390 610 l 153 610 l 153 814 z "},"ø":{"ha":746,"x_min":68,"x_max":678,"o":"m 678 186 q 624 55 678 109 q 492 0 569 0 l 254 0 q 122 55 177 0 q 68 186 68 109 l 68 526 q 122 657 68 603 q 254 712 177 712 l 492 712 q 624 657 569 712 q 678 526 678 603 l 678 186 m 418 490 q 373 509 399 509 q 325 489 345 509 q 305 441 305 469 l 305 397 l 418 490 m 328 222 q 373 203 347 203 q 421 223 401 203 q 441 271 441 243 l 441 315 l 328 222 z "},"ù":{"ha":746,"x_min":68,"x_max":678,"o":"m 441 712 l 678 712 l 678 0 l 254 0 q 122 55 177 0 q 68 186 68 109 l 68 712 l 305 712 l 305 271 q 325 223 305 243 q 373 203 345 203 l 441 203 l 441 712 m 136 1017 l 475 1017 l 610 780 l 441 780 l 136 1017 z "},"ú":{"ha":746,"x_min":68,"x_max":678,"o":"m 441 712 l 678 712 l 678 0 l 254 0 q 122 55 177 0 q 68 186 68 109 l 68 712 l 305 712 l 305 271 q 325 223 305 243 q 373 203 345 203 l 441 203 l 441 712 m 305 780 l 136 780 l 271 1017 l 610 1017 l 305 780 z "},"û":{"ha":746,"x_min":68,"x_max":678,"o":"m 441 712 l 678 712 l 678 0 l 254 0 q 122 55 177 0 q 68 186 68 109 l 68 712 l 305 712 l 305 271 q 325 223 305 243 q 373 203 345 203 l 441 203 l 441 712 m 373 840 l 339 780 l 102 780 l 271 1017 l 475 1017 l 644 780 l 407 780 l 373 840 z "},"ü":{"ha":746,"x_min":68,"x_max":678,"o":"m 441 712 l 678 712 l 678 0 l 254 0 q 122 55 177 0 q 68 186 68 109 l 68 712 l 305 712 l 305 271 q 325 223 305 243 q 373 203 345 203 l 441 203 l 441 712 m 407 983 l 644 983 l 644 780 l 407 780 l 407 983 m 102 983 l 339 983 l 339 780 l 102 780 l 102 983 z "},"ý":{"ha":746,"x_min":68,"x_max":678,"o":"m 441 0 l 254 0 q 122 55 177 0 q 68 186 68 109 l 68 712 l 305 712 l 305 271 q 325 223 305 243 q 373 203 345 203 l 441 203 l 441 712 l 678 712 l 678 -85 q 624 -217 678 -162 q 492 -271 569 -271 l 203 -271 l 203 -68 l 373 -68 q 421 -48 401 -68 q 441 0 441 -28 m 305 780 l 136 780 l 271 1017 l 610 1017 l 305 780 z "},"þ":{"ha":746,"x_min":68,"x_max":678,"o":"m 305 271 q 325 223 305 243 q 373 203 345 203 q 421 223 401 203 q 441 271 441 243 l 441 441 q 421 489 441 469 q 373 509 401 509 l 305 509 l 305 271 m 305 712 l 492 712 q 624 657 569 712 q 678 526 678 603 l 678 186 q 624 55 678 109 q 492 0 569 0 l 305 0 l 305 -271 l 68 -271 l 68 916 l 305 916 l 305 712 z "},"ÿ":{"ha":746,"x_min":68,"x_max":678,"o":"m 441 0 l 254 0 q 122 55 177 0 q 68 186 68 109 l 68 712 l 305 712 l 305 271 q 325 223 305 243 q 373 203 345 203 l 441 203 l 441 712 l 678 712 l 678 -85 q 624 -217 678 -162 q 492 -271 569 -271 l 203 -271 l 203 -68 l 373 -68 q 421 -48 401 -68 q 441 0 441 -28 m 407 983 l 644 983 l 644 780 l 407 780 l 407 983 m 102 983 l 339 983 l 339 780 l 102 780 l 102 983 z "},"ı":{"ha":373,"x_min":68,"x_max":305,"o":"m 305 712 l 305 0 l 68 0 l 68 712 l 305 712 z "},"ˆ":{"ha":678,"x_min":68,"x_max":610,"o":"m 339 1043 l 305 983 l 68 983 l 237 1221 l 441 1221 l 610 983 l 373 983 l 339 1043 z "},"ˇ":{"ha":678,"x_min":68,"x_max":610,"o":"m 373 1221 l 610 1221 l 441 983 l 237 983 l 68 1221 l 305 1221 l 339 1162 l 373 1221 z "},"ˉ":{"ha":452,"x_min":0,"x_max":350,"o":"m 0 810 l 0 895 l 350 895 l 350 810 l 0 810 z "},"˘":{"ha":498,"x_min":0,"x_max":396,"o":"m 0 915 l 35 915 q 85 842 46 865 q 199 819 125 819 q 311 842 273 819 q 361 915 350 865 l 396 915 q 332 778 382 825 q 199 732 282 732 q 65 779 116 732 q 0 915 14 825 z "},"˙":{"ha":339,"x_min":0,"x_max":237,"o":"m 0 1221 l 237 1221 l 237 1017 l 0 1017 l 0 1221 z "},"˚":{"ha":373,"x_min":0,"x_max":271,"o":"m 136 1221 q 232 1186 192 1221 q 271 1102 271 1152 q 232 1018 271 1053 q 136 983 192 983 q 40 1018 79 983 q 0 1102 0 1053 q 40 1186 0 1152 q 136 1221 79 1221 z "},"˛":{"ha":509,"x_min":66,"x_max":441,"o":"m 304 0 q 372 -68 304 -68 l 441 -68 l 440 -271 l 270 -271 q 66 -68 66 -271 l 67 68 l 304 68 l 304 0 z "},"˜":{"ha":746,"x_min":68,"x_max":678,"o":"m 203 1187 q 271 1221 237 1221 q 424 1170 305 1221 l 475 1221 l 678 1153 l 543 1017 q 475 983 509 983 q 322 1034 441 983 l 271 983 l 68 1051 l 203 1187 z "},"˝":{"ha":501,"x_min":0,"x_max":399,"o":"m 0 732 l 98 917 q 129 960 114 947 q 160 972 143 972 q 193 959 179 972 q 206 927 206 945 q 199 903 206 916 q 178 876 192 890 l 39 732 l 0 732 m 193 732 l 291 917 q 322 960 307 947 q 353 972 336 972 q 386 959 372 972 q 399 927 399 945 q 392 903 399 916 q 372 876 385 890 l 233 732 l 193 732 z "},"–":{"ha":678,"x_min":68,"x_max":610,"o":"m 68 373 l 68 576 l 610 576 l 610 373 l 68 373 z "},"—":{"ha":746,"x_min":68,"x_max":678,"o":"m 68 373 l 68 576 l 678 576 l 678 373 l 68 373 z "},"‘":{"ha":339,"x_min":0,"x_max":237,"o":"m 0 916 l 237 916 l 237 712 l 170 576 l 68 576 l 0 712 l 0 916 z "},"’":{"ha":339,"x_min":0,"x_max":237,"o":"m 0 916 l 237 916 l 237 712 l 170 576 l 68 576 l 0 712 l 0 916 z "},"‚":{"ha":339,"x_min":0,"x_max":237,"o":"m 0 203 l 237 203 l 237 0 l 170 -136 l 68 -136 l 0 0 l 0 203 z "},"“":{"ha":678,"x_min":0,"x_max":576,"o":"m 0 916 l 237 916 l 237 712 l 170 576 l 68 576 l 0 712 l 0 916 m 339 916 l 576 916 l 576 712 l 509 576 l 407 576 l 339 712 l 339 916 z "},"”":{"ha":678,"x_min":0,"x_max":576,"o":"m 0 916 l 237 916 l 237 712 l 170 576 l 68 576 l 0 712 l 0 916 m 339 916 l 576 916 l 576 712 l 509 576 l 407 576 l 339 712 l 339 916 z "},"„":{"ha":678,"x_min":0,"x_max":576,"o":"m 0 203 l 237 203 l 237 0 l 170 -136 l 68 -136 l 0 0 l 0 203 m 339 203 l 576 203 l 576 0 l 509 -136 l 407 -136 l 339 0 l 339 203 z "},"†":{"ha":694,"x_min":0,"x_max":592,"o":"m 281 693 q 245 814 276 759 q 206 901 206 882 q 231 955 206 935 q 296 975 255 975 q 360 956 334 975 q 385 907 385 937 q 348 814 385 886 q 311 693 317 757 q 431 730 376 699 q 518 768 499 768 q 572 744 551 768 q 592 679 592 720 q 573 615 592 640 q 524 589 555 589 q 432 627 503 589 q 311 665 374 658 q 385 477 316 546 q 309 -183 313 165 l 283 -183 q 206 477 279 165 q 281 665 275 546 q 161 628 216 659 q 73 589 92 589 q 20 614 40 589 q 0 679 0 638 q 19 743 0 718 q 67 768 37 768 q 160 730 89 768 q 281 693 218 699 z "},"‡":{"ha":694,"x_min":0,"x_max":592,"o":"m 311 126 q 432 165 374 134 q 524 202 503 202 q 573 177 555 202 q 592 113 592 151 q 572 47 592 72 q 518 23 551 23 q 431 62 499 23 q 311 98 376 93 q 348 -23 317 35 q 385 -116 385 -94 q 360 -164 385 -146 q 296 -183 334 -183 q 231 -163 255 -183 q 206 -110 206 -143 q 245 -22 206 -91 q 281 98 276 33 q 160 61 218 92 q 67 23 89 23 q 19 48 37 23 q 0 113 0 74 q 20 178 0 153 q 73 202 40 202 q 161 163 92 202 q 281 126 216 133 q 206 396 275 279 q 281 665 275 512 q 161 628 216 659 q 73 589 92 589 q 20 614 40 589 q 0 679 0 638 q 19 743 0 718 q 67 768 37 768 q 160 730 89 768 q 281 693 218 699 q 245 814 276 759 q 206 901 206 882 q 231 955 206 935 q 296 975 255 975 q 360 956 334 975 q 385 907 385 937 q 348 814 385 886 q 311 693 317 757 q 431 730 376 699 q 518 768 499 768 q 572 744 551 768 q 592 679 592 720 q 573 615 592 640 q 524 589 555 589 q 432 627 503 589 q 311 665 374 658 q 385 396 316 512 q 311 126 316 279 z "},"•":{"ha":503,"x_min":0,"x_max":401,"o":"m 0 487 q 59 629 0 570 q 201 687 118 687 q 343 628 284 687 q 401 487 401 570 q 342 345 401 404 q 200 286 283 286 q 58 345 117 286 q 0 487 0 404 z "},"…":{"ha":983,"x_min":68,"x_max":916,"o":"m 68 203 l 305 203 l 305 0 l 68 0 l 68 203 m 373 203 l 610 203 l 610 0 l 373 0 l 373 203 m 678 203 l 916 203 l 916 0 l 678 0 l 678 203 z "},"‹":{"ha":678,"x_min":68,"x_max":610,"o":"m 68 509 l 339 780 l 610 780 l 339 509 l 610 237 l 339 237 l 68 509 z "},"›":{"ha":678,"x_min":68,"x_max":610,"o":"m 339 237 l 68 237 l 339 509 l 68 780 l 339 780 l 610 509 l 339 237 z "},"⁄":{"ha":746,"x_min":68,"x_max":678,"o":"m 305 0 l 68 0 l 441 916 l 678 916 l 305 0 z "},"₣":{"ha":746,"x_min":68,"x_max":610,"o":"m 136 712 l 136 916 l 610 916 l 610 712 l 136 712 m 136 271 l 136 576 l 610 576 l 610 373 l 373 373 l 373 271 l 509 271 l 509 68 l 373 68 l 373 0 l 136 0 l 136 68 l 68 68 l 68 271 l 136 271 z "},"₤":{"ha":678,"x_min":68,"x_max":610,"o":"m 136 203 l 136 373 l 68 373 l 68 576 l 136 576 l 136 729 q 190 861 136 806 q 322 916 245 916 l 543 916 l 543 712 l 441 712 q 393 692 413 712 q 373 644 373 672 l 373 576 l 543 576 l 543 373 l 373 373 l 373 203 l 610 203 l 610 0 l 68 0 l 68 203 l 136 203 z "},"₧":{"ha":746,"x_min":68,"x_max":678,"o":"m 136 271 l 136 576 l 373 576 q 421 596 401 576 q 441 644 441 616 q 421 692 441 672 q 373 712 401 712 l 136 712 l 136 916 l 492 916 q 624 861 569 916 q 678 729 678 806 l 678 559 q 624 428 678 482 q 492 373 569 373 l 373 373 l 373 271 l 509 271 l 509 68 l 373 68 l 373 0 l 136 0 l 136 68 l 68 68 l 68 271 l 136 271 z "},"€":{"ha":678,"x_min":68,"x_max":610,"o":"m 373 373 l 373 271 q 393 223 373 243 q 441 203 413 203 l 610 203 l 610 0 l 322 0 q 190 55 245 0 q 136 186 136 109 l 136 373 l 68 373 l 68 576 l 136 576 l 136 729 q 190 861 136 806 q 322 916 245 916 l 610 916 l 610 712 l 441 712 q 393 692 413 712 q 373 644 373 672 l 373 576 l 543 576 l 543 373 l 373 373 z "},"№":{"ha":780,"x_min":68,"x_max":712,"o":"m 254 780 q 244 804 254 794 q 220 814 235 814 l 68 814 l 68 916 l 280 916 q 346 888 319 916 q 373 823 373 861 l 373 458 l 254 458 l 254 780 m 186 458 l 68 458 l 68 746 l 186 746 l 186 458 m 500 458 q 434 485 462 458 q 407 551 407 513 l 407 823 q 434 888 407 861 q 500 916 462 916 l 619 916 q 685 888 658 916 q 712 823 712 861 l 712 551 q 685 485 712 513 q 619 458 658 458 l 500 458 m 526 593 q 536 570 526 580 q 559 559 546 559 q 584 570 574 559 q 593 593 593 580 l 593 780 q 584 804 593 794 q 559 814 574 814 q 536 804 546 814 q 526 780 526 794 l 526 593 z "},"™":{"ha":916,"x_min":68,"x_max":814,"o":"m 271 746 l 271 458 l 153 458 l 153 746 l 271 746 m 68 814 l 68 916 l 356 916 l 356 814 l 68 814 m 695 780 q 685 804 695 794 q 661 814 675 814 l 390 814 l 390 916 l 721 916 q 787 888 760 916 q 814 823 814 861 l 814 458 l 695 458 l 695 780 m 661 458 l 543 458 l 543 746 l 661 746 l 661 458 m 509 458 l 390 458 l 390 746 l 509 746 l 509 458 z "},"∂":{"ha":1119,"x_min":0,"x_max":1017,"o":"m 136 0 q 0 136 0 0 l 0 882 q 136 1017 0 1017 l 882 1017 q 1017 882 1017 1017 l 1017 136 q 882 0 1017 0 l 136 0 m 882 17 q 1000 136 1000 17 l 1000 882 q 882 1000 1000 1000 l 136 1000 q 17 882 18 1000 l 17 136 q 136 17 18 17 l 882 17 z "},"∆":{"ha":1119,"x_min":0,"x_max":1017,"o":"m 136 0 q 0 136 0 0 l 0 882 q 136 1017 0 1017 l 882 1017 q 1017 882 1017 1017 l 1017 136 q 882 0 1017 0 l 136 0 m 882 17 q 1000 136 1000 17 l 1000 882 q 882 1000 1000 1000 l 136 1000 q 17 882 18 1000 l 17 136 q 136 17 18 17 l 882 17 z "},"∏":{"ha":1119,"x_min":0,"x_max":1017,"o":"m 136 0 q 0 136 0 0 l 0 882 q 136 1017 0 1017 l 882 1017 q 1017 882 1017 1017 l 1017 136 q 882 0 1017 0 l 136 0 m 882 17 q 1000 136 1000 17 l 1000 882 q 882 1000 1000 1000 l 136 1000 q 17 882 18 1000 l 17 136 q 136 17 18 17 l 882 17 z "},"∑":{"ha":1119,"x_min":0,"x_max":1017,"o":"m 136 0 q 0 136 0 0 l 0 882 q 136 1017 0 1017 l 882 1017 q 1017 882 1017 1017 l 1017 136 q 882 0 1017 0 l 136 0 m 882 17 q 1000 136 1000 17 l 1000 882 q 882 1000 1000 1000 l 136 1000 q 17 882 18 1000 l 17 136 q 136 17 18 17 l 882 17 z "},"−":{"ha":678,"x_min":68,"x_max":610,"o":"m 68 373 l 68 576 l 610 576 l 610 373 l 68 373 z "},"≈":{"ha":1119,"x_min":0,"x_max":1017,"o":"m 136 0 q 0 136 0 0 l 0 882 q 136 1017 0 1017 l 882 1017 q 1017 882 1017 1017 l 1017 136 q 882 0 1017 0 l 136 0 m 882 17 q 1000 136 1000 17 l 1000 882 q 882 1000 1000 1000 l 136 1000 q 17 882 18 1000 l 17 136 q 136 17 18 17 l 882 17 z "},"≤":{"ha":1119,"x_min":0,"x_max":1017,"o":"m 136 0 q 0 136 0 0 l 0 882 q 136 1017 0 1017 l 882 1017 q 1017 882 1017 1017 l 1017 136 q 882 0 1017 0 l 136 0 m 882 17 q 1000 136 1000 17 l 1000 882 q 882 1000 1000 1000 l 136 1000 q 17 882 18 1000 l 17 136 q 136 17 18 17 l 882 17 z "},"≥":{"ha":1119,"x_min":0,"x_max":1017,"o":"m 136 0 q 0 136 0 0 l 0 882 q 136 1017 0 1017 l 882 1017 q 1017 882 1017 1017 l 1017 136 q 882 0 1017 0 l 136 0 m 882 17 q 1000 136 1000 17 l 1000 882 q 882 1000 1000 1000 l 136 1000 q 17 882 18 1000 l 17 136 q 136 17 18 17 l 882 17 z "},"":{"ha":102,"x_min":0,"x_max":0,"o":""},"":{"ha":102,"x_min":0,"x_max":0,"o":""},"Œ":{"ha":1051,"x_min":68,"x_max":983,"o":"m 305 271 q 325 223 305 243 q 373 203 345 203 q 421 223 401 203 q 441 271 441 243 l 441 644 q 421 692 441 672 q 373 712 401 712 q 325 692 345 712 q 305 644 305 672 l 305 271 m 983 916 l 983 712 l 678 712 l 678 576 l 916 576 l 916 373 l 678 373 l 678 203 l 983 203 l 983 0 l 254 0 q 122 55 177 0 q 68 186 68 109 l 68 729 q 122 861 68 806 q 254 916 177 916 l 983 916 z "},"œ":{"ha":1119,"x_min":68,"x_max":1051,"o":"m 305 271 q 325 223 305 243 q 373 203 345 203 q 421 223 401 203 q 441 271 441 243 l 441 441 q 421 489 441 469 q 373 509 401 509 q 325 489 345 509 q 305 441 305 469 l 305 271 m 814 441 q 794 489 814 469 q 746 509 774 509 q 698 489 718 509 q 678 441 678 469 l 814 441 m 559 17 q 492 0 528 0 l 254 0 q 122 55 177 0 q 68 186 68 109 l 68 526 q 122 657 68 603 q 254 712 177 712 l 492 712 q 559 695 528 712 q 627 712 591 712 l 865 712 q 997 657 942 712 q 1051 526 1051 603 l 1051 237 l 678 237 l 678 203 l 983 203 l 983 0 l 627 0 q 559 17 591 0 z "},"‰":{"ha":1458,"x_min":68,"x_max":1390,"o":"m 305 576 q 325 529 305 549 q 373 509 345 509 q 421 529 401 509 q 441 576 441 549 l 441 644 q 421 692 441 672 q 373 712 401 712 q 325 692 345 712 q 305 644 305 672 l 305 576 m 644 271 q 664 223 644 243 q 712 203 684 203 q 760 223 740 203 q 780 271 780 243 l 780 339 q 760 387 780 367 q 712 407 740 407 q 664 387 684 407 q 644 339 644 367 l 644 271 m 1017 271 q 1037 223 1017 243 q 1085 203 1057 203 q 1133 223 1113 203 q 1153 271 1153 243 l 1153 339 q 1133 387 1153 367 q 1085 407 1113 407 q 1037 387 1057 407 q 1017 339 1017 367 l 1017 271 m 899 12 q 831 0 867 0 l 593 0 q 462 55 516 0 q 433 90 445 71 l 373 0 l 102 0 l 305 305 l 254 305 q 122 360 177 305 q 68 492 68 414 l 68 729 q 122 861 68 806 q 254 916 177 916 l 492 916 q 624 861 569 916 q 652 825 640 844 l 712 916 l 983 916 l 780 610 l 831 610 q 899 598 867 610 q 966 610 930 610 l 1204 610 q 1336 556 1281 610 q 1390 424 1390 501 l 1390 186 q 1336 55 1390 109 q 1204 0 1281 0 l 966 0 q 899 12 930 0 z "}}}
